# xmcd
#
# Track frame offsets: 
#        150
#        10890
#        23900
#        36251
#        48326
#        60633
#        71950
#        81395
#        94847
#        107071
#        121255
#        133193
#        144387
#        157498
#        168524
#        180693
#        191190
#        205227
#        217299
#        229979
#        242192
#        255175
#        267659
#        279557
#
# Disc length: 3899 seconds
#
# Revision: 0
# Processed by: cddbd v1.5.2PL0 Copyright (c) Steve Scherf et al.
# Submitted via: ExactAudioCopyFreeDBPlugin 1.0
#
DISCID=7b0f3918
DTITLE=Ernest Tubb - The Ernest Tubb Story
DYEAR=2017
DGENRE=Country
TTITLE0=I'll Get Along Somehow
TTITLE1=Slippin' Around
TTITLE2=Filipino Baby
TTITLE3=When The World Has Turned You Down
TTITLE4=Have You Ever Been Lonely
TTITLE5=There's A Little Bit Of Everything In Texas
TTITLE6=Walkin' The Floor Over You
TTITLE7=Driftwood On The River
TTITLE8=There's Nothing More To Say
TTITLE9=Rainbow At Midnight
TTITLE10=I'll Always Be Glad To Take You Back
TTITLE11=Let's Say Goodbye Like We Said Hello
TTITLE12=Careless Darlin'
TTITLE13=Don't Rob Another Man's Castle
TTITLE14=I Wonder Why You Said Goodbye
TTITLE15=Last Night I Dreamed
TTITLE16=Letters Have No Arms
TTITLE17=Though The Days Were Only Seven
TTITLE18=I Love You Because
TTITLE19=You Nearly Lose Your Mind
TTITLE20=I Will Miss You When You Go
TTITLE21=It's Been So Long Darlin'
TTITLE22=Tomorrow Never Comes
TTITLE23=Blue Christmas
EXTD=
EXTT0=
EXTT1=
EXTT2=
EXTT3=
EXTT4=
EXTT5=
EXTT6=
EXTT7=
EXTT8=
EXTT9=
EXTT10=
EXTT11=
EXTT12=
EXTT13=
EXTT14=
EXTT15=
EXTT16=
EXTT17=
EXTT18=
EXTT19=
EXTT20=
EXTT21=
EXTT22=
EXTT23=
PLAYORDER=
